<svg width="1672" height="1194" viewBox="0 0 1672 1194" fill="none" xmlns="http://www.w3.org/2000/svg">
<rect width="1440" height="1024" fill="#0F103F"/>
<g filter="url(#filter0_f_124_305)">
<circle cx="1006" cy="628" r="404" fill="url(#paint0_radial_124_305)" fill-opacity="0.6"/>
</g>
<path d="M1670.58 628.338C1670.58 714.317 1608.44 792.316 1507.63 848.865C1406.85 905.4 1267.57 940.391 1113.68 940.391C959.786 940.391 820.503 905.4 719.719 848.865C618.911 792.316 556.776 714.317 556.776 628.338C556.776 542.359 618.911 464.36 719.719 407.811C820.503 351.276 959.786 316.285 1113.68 316.285C1267.57 316.285 1406.85 351.276 1507.63 407.811C1608.44 464.36 1670.58 542.359 1670.58 628.338Z" stroke="url(#paint1_linear_124_305)" stroke-width="1.55273"/>
<path d="M1485.44 729.133C1485.44 780.961 1448.86 828.082 1389.3 862.305C1329.76 896.511 1247.44 917.701 1156.46 917.701C1065.48 917.701 983.158 896.511 923.621 862.305C864.056 828.082 827.483 780.961 827.483 729.133C827.483 677.304 864.056 630.183 923.621 595.961C983.158 561.755 1065.48 540.565 1156.46 540.565C1247.44 540.565 1329.76 561.755 1389.3 595.961C1448.86 630.183 1485.44 677.304 1485.44 729.133Z" fill="url(#paint2_radial_124_305)" stroke="url(#paint3_linear_124_305)" stroke-width="2.07031"/>
<ellipse cx="1170.07" cy="800.536" rx="169.707" ry="95.1973" fill="url(#paint4_radial_124_305)" fill-opacity="0.6"/>
<g filter="url(#filter1_d_124_305)">
<path fill-rule="evenodd" clip-rule="evenodd" d="M1170.07 895.734C1288.92 895.734 1385.26 843.997 1385.26 780.176C1385.26 716.355 1288.92 664.618 1170.07 664.618C1051.23 664.618 954.885 716.355 954.885 780.176C954.885 843.997 1051.23 895.734 1170.07 895.734ZM1170.07 895.733C1263.8 895.733 1339.78 853.112 1339.78 800.536C1339.78 747.96 1263.8 705.338 1170.07 705.338C1076.35 705.338 1000.37 747.96 1000.37 800.536C1000.37 853.112 1076.35 895.733 1170.07 895.733Z" fill="url(#paint5_radial_124_305)" fill-opacity="0.6" shape-rendering="crispEdges"/>
</g>
<g filter="url(#filter2_d_124_305)">
<path fill-rule="evenodd" clip-rule="evenodd" d="M1170.07 906.036C1339.83 906.036 1477.44 828.84 1477.44 733.615C1477.44 638.389 1339.83 561.194 1170.07 561.194C1000.32 561.194 862.701 638.389 862.701 733.615C862.701 828.84 1000.32 906.036 1170.07 906.036ZM1170.07 895.733C1288.92 895.733 1385.26 843.995 1385.26 780.175C1385.26 716.354 1288.92 664.617 1170.07 664.617C1051.23 664.617 954.885 716.354 954.885 780.175C954.885 843.995 1051.23 895.733 1170.07 895.733Z" fill="url(#paint6_radial_124_305)" shape-rendering="crispEdges"/>
</g>
<path fill-rule="evenodd" clip-rule="evenodd" d="M1171.03 891.08C1247.43 890.792 1309.2 855.962 1309.2 813.039C1309.2 769.937 1246.91 734.996 1170.07 734.996C1093.24 734.996 1030.95 769.937 1030.95 813.039C1030.95 855.964 1092.73 890.795 1169.13 891.08C1108.84 890.795 1060.13 863.293 1060.13 829.409C1060.13 795.348 1109.35 767.736 1170.07 767.736C1230.79 767.736 1280.02 795.348 1280.02 829.409C1280.02 863.292 1231.31 890.792 1171.03 891.08Z" fill="url(#paint7_radial_124_305)"/>
<path d="M1402.13 770.214C1402.13 805.921 1376.32 838.381 1334.3 861.95C1292.3 885.508 1234.24 900.1 1170.07 900.1C1105.91 900.1 1047.84 885.508 1005.85 861.95C963.83 838.381 938.022 805.921 938.022 770.214C938.022 734.507 963.83 702.047 1005.85 678.478C1047.84 654.92 1105.91 640.328 1170.07 640.328C1234.24 640.328 1292.3 654.92 1334.3 678.478C1376.32 702.047 1402.13 734.507 1402.13 770.214Z" stroke="url(#paint8_linear_124_305)" stroke-width="1.29394"/>
<rect width="2.31088" height="2.31088" transform="matrix(0.707082 0.707131 -0.707082 0.707131 902.954 766.942)" fill="#00FFF0"/>
<rect x="927.523" y="813.022" width="4.67319" height="4.67319" transform="rotate(45 927.523 813.022)" fill="#00FFF0"/>
<rect width="2.1717" height="2.1717" transform="matrix(-0.707107 -0.707107 -0.707107 0.707107 1013.04 816.327)" fill="#00FFF0"/>
<rect x="977.147" y="857.5" width="2.31088" height="2.31088" transform="rotate(45 977.147 857.5)" fill="#00FFF0"/>
<rect width="2.31088" height="2.31088" transform="matrix(0.707131 0.707082 -0.707131 0.707082 851.995 761.46)" fill="#00FFF0"/>
<rect width="2.31088" height="2.31088" transform="matrix(0.707131 0.707082 -0.707131 0.707082 864.34 683.576)" fill="#00FFF0" fill-opacity="0.5"/>
<rect x="899.683" y="729.041" width="1.61507" height="1.61507" transform="rotate(45 899.683 729.041)" fill="#00FFF0" fill-opacity="0.5"/>
<rect x="879.981" y="720.965" width="3.0132" height="3.0132" transform="rotate(45 879.981 720.965)" fill="#00FFF0" fill-opacity="0.5"/>
<circle cx="1207.02" cy="800.583" r="147.322" fill="url(#paint9_radial_124_305)" fill-opacity="0.5"/>
<circle cx="1207.02" cy="800.536" r="218.22" fill="url(#paint10_radial_124_305)" fill-opacity="0.6"/>
<g filter="url(#filter3_d_124_305)">
<ellipse cx="1207.02" cy="868.419" rx="116.124" ry="72.7485" fill="url(#paint11_linear_124_305)" fill-opacity="0.5" shape-rendering="crispEdges"/>
<path d="M1322.63 868.419C1322.63 888.265 1309.79 906.311 1288.86 919.421C1267.94 932.527 1239.01 940.65 1207.02 940.65C1175.04 940.65 1146.1 932.527 1125.18 919.421C1104.26 906.311 1091.41 888.265 1091.41 868.419C1091.41 848.572 1104.26 830.527 1125.18 817.416C1146.1 804.311 1175.04 796.188 1207.02 796.188C1239.01 796.188 1267.94 804.311 1288.86 817.416C1309.79 830.527 1322.63 848.572 1322.63 868.419Z" stroke="url(#paint12_linear_124_305)" stroke-opacity="0.6" stroke-width="1.03515" shape-rendering="crispEdges"/>
</g>
<circle cx="1207.02" cy="800.584" r="147.322" fill="url(#paint13_radial_124_305)"/>
<g filter="url(#filter4_d_124_305)">
<ellipse cx="1207.02" cy="824.942" rx="144.032" ry="84.2613" fill="url(#paint14_linear_124_305)" fill-opacity="0.5" shape-rendering="crispEdges"/>
</g>
<g filter="url(#filter5_d_124_305)">
<ellipse cx="1207.02" cy="772.63" rx="142.567" ry="82.3127" fill="url(#paint15_linear_124_305)" fill-opacity="0.5" shape-rendering="crispEdges"/>
<path d="M1349.07 772.63C1349.07 795.097 1333.29 815.535 1307.57 830.385C1281.86 845.228 1246.32 854.425 1207.02 854.425C1167.73 854.425 1132.18 845.228 1106.47 830.385C1080.75 815.535 1064.97 795.097 1064.97 772.63C1064.97 750.163 1080.75 729.725 1106.47 714.874C1132.18 700.031 1167.73 690.835 1207.02 690.835C1246.32 690.835 1281.86 700.031 1307.57 714.874C1333.29 729.725 1349.07 750.163 1349.07 772.63Z" stroke="url(#paint16_linear_124_305)" stroke-opacity="0.6" stroke-width="1.03515" shape-rendering="crispEdges"/>
</g>
<g filter="url(#filter6_d_124_305)">
<ellipse cx="1207.02" cy="705.287" rx="68.8574" ry="46.6703" fill="url(#paint17_linear_124_305)" fill-opacity="0.5" shape-rendering="crispEdges"/>
</g>
<circle cx="1207.02" cy="800.583" r="109.124" fill="url(#paint18_radial_124_305)"/>
<g filter="url(#filter7_d_124_305)">
<path d="M1317.13 730.124C1317.13 749.636 1304.89 767.37 1284.96 780.252C1265.04 793.131 1237.48 801.113 1207.02 801.113C1176.55 801.113 1149 793.131 1129.07 780.252C1109.14 767.37 1096.91 749.636 1096.91 730.124C1096.91 710.612 1109.14 692.878 1129.07 679.996C1149 667.117 1176.55 659.135 1207.02 659.135C1237.48 659.135 1265.04 667.117 1284.96 679.996C1304.89 692.878 1317.13 710.612 1317.13 730.124Z" stroke="url(#paint19_linear_124_305)" stroke-opacity="0.6" stroke-width="1.03515" shape-rendering="crispEdges"/>
</g>
<g filter="url(#filter8_d_124_305)">
<path d="M1349.07 772.63C1349.07 795.097 1333.29 815.535 1307.57 830.385C1281.86 845.228 1246.32 854.425 1207.02 854.425C1167.73 854.425 1132.18 845.228 1106.47 830.385C1080.75 815.535 1064.97 795.097 1064.97 772.63C1064.97 750.163 1080.75 729.725 1106.47 714.874C1132.18 700.031 1167.73 690.835 1207.02 690.835C1246.32 690.835 1281.86 700.031 1307.57 714.874C1333.29 729.725 1349.07 750.163 1349.07 772.63Z" stroke="url(#paint20_linear_124_305)" stroke-opacity="0.6" stroke-width="1.03515" shape-rendering="crispEdges"/>
</g>
<g filter="url(#filter9_d_124_305)">
<path d="M1350.53 824.942C1350.53 847.951 1334.59 868.876 1308.6 884.077C1282.63 899.272 1246.72 908.686 1207.02 908.686C1167.32 908.686 1131.41 899.272 1105.44 884.077C1079.45 868.876 1063.51 847.951 1063.51 824.942C1063.51 801.934 1079.45 781.009 1105.44 765.807C1131.41 750.613 1167.32 741.199 1207.02 741.199C1246.72 741.199 1282.63 750.613 1308.6 765.807C1334.59 781.009 1350.53 801.934 1350.53 824.942Z" stroke="url(#paint21_linear_124_305)" stroke-opacity="0.6" stroke-width="1.03515" shape-rendering="crispEdges"/>
</g>
<g filter="url(#filter10_d_124_305)">
<path d="M1275.36 705.287C1275.36 717.952 1267.79 729.478 1255.42 737.86C1243.06 746.24 1225.95 751.44 1207.02 751.44C1188.1 751.44 1170.99 746.24 1158.62 737.86C1146.26 729.478 1138.68 717.952 1138.68 705.287C1138.68 692.623 1146.26 681.097 1158.62 672.715C1170.99 664.335 1188.1 659.135 1207.02 659.135C1225.95 659.135 1243.06 664.335 1255.42 672.715C1267.79 681.097 1275.36 692.623 1275.36 705.287Z" stroke="url(#paint22_linear_124_305)" stroke-opacity="0.6" stroke-width="1.03515" shape-rendering="crispEdges"/>
</g>
<circle cx="976.092" cy="705.339" r="83.6074" fill="url(#paint23_radial_124_305)" fill-opacity="0.6"/>
<g filter="url(#filter11_d_124_305)">
<ellipse cx="965.812" cy="728.549" rx="52.5358" ry="32.9122" fill="url(#paint24_linear_124_305)" fill-opacity="0.5" shape-rendering="crispEdges"/>
<path d="M1017.83 728.549C1017.83 737.395 1012.11 745.481 1002.69 751.382C993.273 757.279 980.238 760.943 965.812 760.943C951.387 760.943 938.351 757.279 928.939 751.382C919.519 745.481 913.794 737.395 913.794 728.549C913.794 719.702 919.519 711.616 928.939 705.715C938.351 699.818 951.387 696.154 965.812 696.154C980.238 696.154 993.273 699.818 1002.69 705.715C1012.11 711.616 1017.83 719.702 1017.83 728.549Z" stroke="url(#paint25_linear_124_305)" stroke-opacity="0.6" stroke-width="1.03515" shape-rendering="crispEdges"/>
</g>
<circle cx="965.813" cy="697.859" r="66.65" fill="url(#paint26_radial_124_305)"/>
<g filter="url(#filter12_d_124_305)">
<ellipse cx="965.813" cy="708.879" rx="65.1615" ry="38.1208" fill="url(#paint27_linear_124_305)" fill-opacity="0.5" shape-rendering="crispEdges"/>
<path d="M1030.46 708.879C1030.46 719.146 1023.34 728.536 1011.63 735.387C999.928 742.232 983.731 746.482 965.813 746.482C947.894 746.482 931.697 742.232 919.998 735.387C908.286 728.536 901.169 719.146 901.169 708.879C901.169 698.612 908.286 689.222 919.998 682.37C931.697 675.526 947.894 671.276 965.813 671.276C983.731 671.276 999.928 675.526 1011.63 682.37C1023.34 689.222 1030.46 698.612 1030.46 708.879Z" stroke="url(#paint28_linear_124_305)" stroke-opacity="0.6" stroke-width="1.03515" shape-rendering="crispEdges"/>
</g>
<circle cx="965.814" cy="697.859" r="49.369" fill="url(#paint29_radial_124_305)"/>
<circle cx="965.814" cy="697.859" r="49.369" fill="url(#paint30_radial_124_305)"/>
<g filter="url(#filter13_d_124_305)">
<ellipse cx="965.814" cy="685.213" rx="64.4987" ry="37.2392" fill="url(#paint31_linear_124_305)" fill-opacity="0.5" shape-rendering="crispEdges"/>
<path d="M1029.8 685.213C1029.8 695.233 1022.76 704.403 1011.16 711.097C999.583 717.783 983.551 721.934 965.814 721.934C948.078 721.934 932.046 717.783 920.466 711.097C908.872 704.403 901.833 695.233 901.833 685.213C901.833 675.193 908.872 666.023 920.466 659.329C932.046 652.643 948.078 648.491 965.814 648.491C983.551 648.491 999.583 652.643 1011.16 659.329C1022.76 666.023 1029.8 675.193 1029.8 685.213Z" stroke="url(#paint32_linear_124_305)" stroke-opacity="0.6" stroke-width="1.03515" shape-rendering="crispEdges"/>
</g>
<g filter="url(#filter14_d_124_305)">
<ellipse cx="965.812" cy="665.983" rx="50.0491" ry="32.3504" fill="url(#paint33_linear_124_305)" fill-opacity="0.5" shape-rendering="crispEdges"/>
<path d="M1015.34 665.983C1015.34 674.682 1009.89 682.628 1000.92 688.424C991.959 694.216 979.548 697.816 965.812 697.816C952.076 697.816 939.664 694.216 930.703 688.424C921.736 682.628 916.28 674.682 916.28 665.983C916.28 657.284 921.736 649.339 930.703 643.543C939.664 637.75 952.076 634.15 965.812 634.15C979.548 634.15 991.959 637.75 1000.92 643.543C1009.89 649.339 1015.34 657.284 1015.34 665.983Z" stroke="url(#paint34_linear_124_305)" stroke-opacity="0.6" stroke-width="1.03515" shape-rendering="crispEdges"/>
</g>
<g filter="url(#filter15_d_124_305)">
<ellipse cx="965.814" cy="654.747" rx="31.1518" ry="21.1141" fill="url(#paint35_linear_124_305)" fill-opacity="0.5" shape-rendering="crispEdges"/>
<path d="M996.448 654.747C996.448 660.354 993.095 665.491 987.551 669.248C982.01 673.004 974.326 675.343 965.814 675.343C957.301 675.343 949.617 673.004 944.076 669.248C938.533 665.491 935.179 660.354 935.179 654.747C935.179 649.139 938.533 644.003 944.076 640.245C949.617 636.49 957.301 634.15 965.814 634.15C974.326 634.15 982.01 636.49 987.551 640.245C993.095 644.003 996.448 649.139 996.448 654.747Z" stroke="url(#paint36_linear_124_305)" stroke-opacity="0.6" stroke-width="1.03515" shape-rendering="crispEdges"/>
</g>
<circle cx="965.813" cy="697.859" r="66.65" fill="url(#paint37_radial_124_305)" fill-opacity="0.9"/>
<rect x="795.439" y="460.723" width="2.73802" height="2.73802" transform="rotate(45 795.439 460.723)" fill="#0066FF" fill-opacity="0.5"/>
<rect x="824.51" y="515.251" width="5.52977" height="5.52977" transform="rotate(45 824.51 515.251)" fill="#0066FF" fill-opacity="0.5"/>
<rect width="2.57312" height="2.57312" transform="matrix(-0.707129 -0.707085 -0.707129 0.707085 925.703 519.161)" fill="#0066FF" fill-opacity="0.5"/>
<rect x="883.231" y="567.879" width="2.73802" height="2.73802" transform="rotate(45 883.231 567.879)" fill="#0066FF" fill-opacity="0.5"/>
<rect x="735.138" y="454.236" width="2.73802" height="2.73802" transform="rotate(45 735.138 454.236)" fill="#0066FF" fill-opacity="0.5"/>
<rect x="749.746" y="362.075" width="2.73802" height="2.73802" transform="rotate(45 749.746 362.075)" fill="#0500FF" fill-opacity="0.5"/>
<rect width="1.9111" height="1.9111" transform="matrix(0.707077 0.707136 -0.707077 0.707136 791.567 415.874)" fill="#0500FF" fill-opacity="0.5"/>
<rect x="768.256" y="406.318" width="3.56551" height="3.56551" transform="rotate(45 768.256 406.318)" fill="#0500FF" fill-opacity="0.5"/>
<rect x="643.388" y="773.598" width="3.80692" height="3.80692" transform="rotate(45 643.388 773.598)" fill="#0066FF" fill-opacity="0.5"/>
<rect width="7.68854" height="7.68854" transform="matrix(0.707114 0.707099 -0.707114 0.707099 683.807 849.412)" fill="#0066FF" fill-opacity="0.5"/>
<rect width="3.57764" height="3.57764" transform="matrix(-0.707107 -0.707107 -0.707107 0.707107 824.506 854.849)" fill="#0066FF" fill-opacity="0.5"/>
<rect width="3.80692" height="3.80692" transform="matrix(0.707122 0.707092 -0.707122 0.707092 765.453 922.588)" fill="#0066FF" fill-opacity="0.5"/>
<rect width="3.80692" height="3.80692" transform="matrix(0.707122 0.707092 -0.707122 0.707092 559.545 764.578)" fill="#0066FF" fill-opacity="0.5"/>
<rect x="579.856" y="636.439" width="3.80692" height="3.80692" transform="rotate(45 579.856 636.439)" fill="#0500FF" fill-opacity="0.5"/>
<rect x="638.005" y="711.241" width="2.66065" height="2.66065" transform="rotate(45 638.005 711.241)" fill="#0500FF" fill-opacity="0.5"/>
<rect width="4.95745" height="4.95745" transform="matrix(0.707118 0.707095 -0.707118 0.707095 605.592 697.954)" fill="#0500FF" fill-opacity="0.5"/>
<rect x="1471.42" y="564.364" width="3.25833" height="3.25833" transform="rotate(-32.8977 1471.42 564.364)" fill="#0066FF" fill-opacity="0.5"/>
<rect x="1542.12" y="544.143" width="6.5806" height="6.5806" transform="rotate(-32.8977 1542.12 544.143)" fill="#0066FF" fill-opacity="0.5"/>
<rect width="3.06209" height="3.06209" transform="matrix(-0.839642 0.54314 0.54314 0.839642 1571.92 427.371)" fill="#0066FF" fill-opacity="0.5"/>
<rect width="3.25833" height="3.25833" transform="matrix(0.839667 -0.543102 0.543179 0.839617 1618.01 488.946)" fill="#0066FF" fill-opacity="0.5"/>
<rect x="1448.83" y="632.912" width="3.25833" height="3.25833" transform="rotate(-32.8977 1448.83 632.912)" fill="#0066FF" fill-opacity="0.5"/>
<rect x="1345.24" y="592.921" width="3.25833" height="3.25833" transform="rotate(-32.8977 1345.24 592.921)" fill="#0500FF" fill-opacity="0.5"/>
<rect width="2.27427" height="2.27427" transform="matrix(0.839624 -0.543168 0.543113 0.83966 1418.27 557.681)" fill="#0500FF" fill-opacity="0.5"/>
<rect width="4.24306" height="4.24306" transform="matrix(0.839652 -0.543126 0.543155 0.839632 1401.34 582.421)" fill="#0500FF" fill-opacity="0.5"/>
<rect x="1291.25" y="461.855" width="6.58059" height="6.5806" transform="rotate(9.6901 1291.25 461.855)" fill="#0066FF" fill-opacity="0.5"/>
<rect width="3.06209" height="3.06209" transform="matrix(-0.985732 -0.168319 -0.168319 0.985733 1392.22 396.047)" fill="#0066FF" fill-opacity="0.5"/>
<rect x="1384.48" y="472.573" width="3.25833" height="3.25833" transform="rotate(9.6901 1384.48 472.573)" fill="#0066FF" fill-opacity="0.5"/>
<rect x="1162.5" y="464.077" width="3.25833" height="3.25833" transform="rotate(9.6901 1162.5 464.077)" fill="#0066FF" fill-opacity="0.5"/>
<rect x="1113.29" y="364.533" width="3.25833" height="3.25833" transform="rotate(9.6901 1113.29 364.533)" fill="#0500FF" fill-opacity="0.5"/>
<rect width="2.27427" height="2.27427" transform="matrix(0.985735 0.168305 -0.168333 0.98573 1190.91 388.01)" fill="#0500FF" fill-opacity="0.5"/>
<rect x="1161.7" y="394.764" width="4.24306" height="4.24306" transform="rotate(9.6901 1161.7 394.764)" fill="#0500FF" fill-opacity="0.5"/>
<defs>
<filter id="filter0_f_124_305" x="440.4" y="62.4" width="1131.2" height="1131.2" filterUnits="userSpaceOnUse" color-interpolation-filters="sRGB">
<feFlood flood-opacity="0" result="BackgroundImageFix"/>
<feBlend mode="normal" in="SourceGraphic" in2="BackgroundImageFix" result="shape"/>
<feGaussianBlur stdDeviation="80.8" result="effect1_foregroundBlur_124_305"/>
</filter>
<filter id="filter1_d_124_305" x="952.297" y="656.854" width="445.9" height="246.643" filterUnits="userSpaceOnUse" color-interpolation-filters="sRGB">
<feFlood flood-opacity="0" result="BackgroundImageFix"/>
<feColorMatrix in="SourceAlpha" type="matrix" values="0 0 0 0 0 0 0 0 0 0 0 0 0 0 0 0 0 0 127 0" result="hardAlpha"/>
<feOffset dx="5.17577"/>
<feGaussianBlur stdDeviation="3.88183"/>
<feComposite in2="hardAlpha" operator="out"/>
<feColorMatrix type="matrix" values="0 0 0 0 0.119531 0 0 0 0 0.163828 0 0 0 0 0.5625 0 0 0 0.1 0"/>
<feBlend mode="normal" in2="BackgroundImageFix" result="effect1_dropShadow_124_305"/>
<feBlend mode="normal" in="SourceGraphic" in2="effect1_dropShadow_124_305" result="shape"/>
</filter>
<filter id="filter2_d_124_305" x="860.113" y="552.913" width="630.271" height="360.369" filterUnits="userSpaceOnUse" color-interpolation-filters="sRGB">
<feFlood flood-opacity="0" result="BackgroundImageFix"/>
<feColorMatrix in="SourceAlpha" type="matrix" values="0 0 0 0 0 0 0 0 0 0 0 0 0 0 0 0 0 0 127 0" result="hardAlpha"/>
<feOffset dx="5.17577" dy="-0.517577"/>
<feGaussianBlur stdDeviation="3.88183"/>
<feComposite in2="hardAlpha" operator="out"/>
<feColorMatrix type="matrix" values="0 0 0 0 0.119531 0 0 0 0 0.163828 0 0 0 0 0.5625 0 0 0 0.1 0"/>
<feBlend mode="normal" in2="BackgroundImageFix" result="effect1_dropShadow_124_305"/>
<feBlend mode="normal" in="SourceGraphic" in2="effect1_dropShadow_124_305" result="shape"/>
</filter>
<filter id="filter3_d_124_305" x="1084.17" y="788.942" width="247.775" height="161.024" filterUnits="userSpaceOnUse" color-interpolation-filters="sRGB">
<feFlood flood-opacity="0" result="BackgroundImageFix"/>
<feColorMatrix in="SourceAlpha" type="matrix" values="0 0 0 0 0 0 0 0 0 0 0 0 0 0 0 0 0 0 127 0" result="hardAlpha"/>
<feOffset dx="1.03515" dy="1.03515"/>
<feGaussianBlur stdDeviation="3.88183"/>
<feComposite in2="hardAlpha" operator="out"/>
<feColorMatrix type="matrix" values="0 0 0 0 0.440043 0 0 0 0 0.20092 0 0 0 0 0.679167 0 0 0 0.2 0"/>
<feBlend mode="normal" in2="BackgroundImageFix" result="effect1_dropShadow_124_305"/>
<feBlend mode="normal" in="SourceGraphic" in2="effect1_dropShadow_124_305" result="shape"/>
</filter>
<filter id="filter4_d_124_305" x="1056.26" y="733.953" width="303.591" height="184.05" filterUnits="userSpaceOnUse" color-interpolation-filters="sRGB">
<feFlood flood-opacity="0" result="BackgroundImageFix"/>
<feColorMatrix in="SourceAlpha" type="matrix" values="0 0 0 0 0 0 0 0 0 0 0 0 0 0 0 0 0 0 127 0" result="hardAlpha"/>
<feOffset dx="1.03515" dy="1.03515"/>
<feGaussianBlur stdDeviation="3.88183"/>
<feComposite in2="hardAlpha" operator="out"/>
<feColorMatrix type="matrix" values="0 0 0 0 0.440043 0 0 0 0 0.20092 0 0 0 0 0.679167 0 0 0 0.2 0"/>
<feBlend mode="normal" in2="BackgroundImageFix" result="effect1_dropShadow_124_305"/>
<feBlend mode="normal" in="SourceGraphic" in2="effect1_dropShadow_124_305" result="shape"/>
</filter>
<filter id="filter5_d_124_305" x="1057.73" y="683.589" width="300.661" height="180.153" filterUnits="userSpaceOnUse" color-interpolation-filters="sRGB">
<feFlood flood-opacity="0" result="BackgroundImageFix"/>
<feColorMatrix in="SourceAlpha" type="matrix" values="0 0 0 0 0 0 0 0 0 0 0 0 0 0 0 0 0 0 127 0" result="hardAlpha"/>
<feOffset dx="1.03515" dy="1.03515"/>
<feGaussianBlur stdDeviation="3.88183"/>
<feComposite in2="hardAlpha" operator="out"/>
<feColorMatrix type="matrix" values="0 0 0 0 0.440043 0 0 0 0 0.20092 0 0 0 0 0.679167 0 0 0 0.2 0"/>
<feBlend mode="normal" in2="BackgroundImageFix" result="effect1_dropShadow_124_305"/>
<feBlend mode="normal" in="SourceGraphic" in2="effect1_dropShadow_124_305" result="shape"/>
</filter>
<filter id="filter6_d_124_305" x="1131.44" y="651.889" width="153.242" height="108.868" filterUnits="userSpaceOnUse" color-interpolation-filters="sRGB">
<feFlood flood-opacity="0" result="BackgroundImageFix"/>
<feColorMatrix in="SourceAlpha" type="matrix" values="0 0 0 0 0 0 0 0 0 0 0 0 0 0 0 0 0 0 127 0" result="hardAlpha"/>
<feOffset dx="1.03515" dy="1.03515"/>
<feGaussianBlur stdDeviation="3.88183"/>
<feComposite in2="hardAlpha" operator="out"/>
<feColorMatrix type="matrix" values="0 0 0 0 0.440043 0 0 0 0 0.20092 0 0 0 0 0.679167 0 0 0 0.2 0"/>
<feBlend mode="normal" in2="BackgroundImageFix" result="effect1_dropShadow_124_305"/>
<feBlend mode="normal" in="SourceGraphic" in2="effect1_dropShadow_124_305" result="shape"/>
</filter>
<filter id="filter7_d_124_305" x="1089.66" y="651.889" width="236.783" height="158.541" filterUnits="userSpaceOnUse" color-interpolation-filters="sRGB">
<feFlood flood-opacity="0" result="BackgroundImageFix"/>
<feColorMatrix in="SourceAlpha" type="matrix" values="0 0 0 0 0 0 0 0 0 0 0 0 0 0 0 0 0 0 127 0" result="hardAlpha"/>
<feOffset dx="1.03515" dy="1.03515"/>
<feGaussianBlur stdDeviation="3.88183"/>
<feComposite in2="hardAlpha" operator="out"/>
<feColorMatrix type="matrix" values="0 0 0 0 0.440043 0 0 0 0 0.20092 0 0 0 0 0.679167 0 0 0 0.2 0"/>
<feBlend mode="normal" in2="BackgroundImageFix" result="effect1_dropShadow_124_305"/>
<feBlend mode="normal" in="SourceGraphic" in2="effect1_dropShadow_124_305" result="shape"/>
</filter>
<filter id="filter8_d_124_305" x="1057.73" y="683.589" width="300.661" height="180.153" filterUnits="userSpaceOnUse" color-interpolation-filters="sRGB">
<feFlood flood-opacity="0" result="BackgroundImageFix"/>
<feColorMatrix in="SourceAlpha" type="matrix" values="0 0 0 0 0 0 0 0 0 0 0 0 0 0 0 0 0 0 127 0" result="hardAlpha"/>
<feOffset dx="1.03515" dy="1.03515"/>
<feGaussianBlur stdDeviation="3.88183"/>
<feComposite in2="hardAlpha" operator="out"/>
<feColorMatrix type="matrix" values="0 0 0 0 0.440043 0 0 0 0 0.20092 0 0 0 0 0.679167 0 0 0 0.2 0"/>
<feBlend mode="normal" in2="BackgroundImageFix" result="effect1_dropShadow_124_305"/>
<feBlend mode="normal" in="SourceGraphic" in2="effect1_dropShadow_124_305" result="shape"/>
</filter>
<filter id="filter9_d_124_305" x="1056.26" y="733.953" width="303.591" height="184.05" filterUnits="userSpaceOnUse" color-interpolation-filters="sRGB">
<feFlood flood-opacity="0" result="BackgroundImageFix"/>
<feColorMatrix in="SourceAlpha" type="matrix" values="0 0 0 0 0 0 0 0 0 0 0 0 0 0 0 0 0 0 127 0" result="hardAlpha"/>
<feOffset dx="1.03515" dy="1.03515"/>
<feGaussianBlur stdDeviation="3.88183"/>
<feComposite in2="hardAlpha" operator="out"/>
<feColorMatrix type="matrix" values="0 0 0 0 0.440043 0 0 0 0 0.20092 0 0 0 0 0.679167 0 0 0 0.2 0"/>
<feBlend mode="normal" in2="BackgroundImageFix" result="effect1_dropShadow_124_305"/>
<feBlend mode="normal" in="SourceGraphic" in2="effect1_dropShadow_124_305" result="shape"/>
</filter>
<filter id="filter10_d_124_305" x="1131.44" y="651.889" width="153.242" height="108.868" filterUnits="userSpaceOnUse" color-interpolation-filters="sRGB">
<feFlood flood-opacity="0" result="BackgroundImageFix"/>
<feColorMatrix in="SourceAlpha" type="matrix" values="0 0 0 0 0 0 0 0 0 0 0 0 0 0 0 0 0 0 127 0" result="hardAlpha"/>
<feOffset dx="1.03515" dy="1.03515"/>
<feGaussianBlur stdDeviation="3.88183"/>
<feComposite in2="hardAlpha" operator="out"/>
<feColorMatrix type="matrix" values="0 0 0 0 0.440043 0 0 0 0 0.20092 0 0 0 0 0.679167 0 0 0 0.2 0"/>
<feBlend mode="normal" in2="BackgroundImageFix" result="effect1_dropShadow_124_305"/>
<feBlend mode="normal" in="SourceGraphic" in2="effect1_dropShadow_124_305" result="shape"/>
</filter>
<filter id="filter11_d_124_305" x="906.548" y="688.908" width="120.599" height="81.3518" filterUnits="userSpaceOnUse" color-interpolation-filters="sRGB">
<feFlood flood-opacity="0" result="BackgroundImageFix"/>
<feColorMatrix in="SourceAlpha" type="matrix" values="0 0 0 0 0 0 0 0 0 0 0 0 0 0 0 0 0 0 127 0" result="hardAlpha"/>
<feOffset dx="1.03515" dy="1.03515"/>
<feGaussianBlur stdDeviation="3.88183"/>
<feComposite in2="hardAlpha" operator="out"/>
<feColorMatrix type="matrix" values="0 0 0 0 0.440043 0 0 0 0 0.20092 0 0 0 0 0.679167 0 0 0 0.2 0"/>
<feBlend mode="normal" in2="BackgroundImageFix" result="effect1_dropShadow_124_305"/>
<feBlend mode="normal" in="SourceGraphic" in2="effect1_dropShadow_124_305" result="shape"/>
</filter>
<filter id="filter12_d_124_305" x="893.923" y="664.029" width="145.85" height="91.7688" filterUnits="userSpaceOnUse" color-interpolation-filters="sRGB">
<feFlood flood-opacity="0" result="BackgroundImageFix"/>
<feColorMatrix in="SourceAlpha" type="matrix" values="0 0 0 0 0 0 0 0 0 0 0 0 0 0 0 0 0 0 127 0" result="hardAlpha"/>
<feOffset dx="1.03515" dy="1.03515"/>
<feGaussianBlur stdDeviation="3.88183"/>
<feComposite in2="hardAlpha" operator="out"/>
<feColorMatrix type="matrix" values="0 0 0 0 0.440043 0 0 0 0 0.20092 0 0 0 0 0.679167 0 0 0 0.2 0"/>
<feBlend mode="normal" in2="BackgroundImageFix" result="effect1_dropShadow_124_305"/>
<feBlend mode="normal" in="SourceGraphic" in2="effect1_dropShadow_124_305" result="shape"/>
</filter>
<filter id="filter13_d_124_305" x="894.587" y="641.245" width="144.525" height="90.0057" filterUnits="userSpaceOnUse" color-interpolation-filters="sRGB">
<feFlood flood-opacity="0" result="BackgroundImageFix"/>
<feColorMatrix in="SourceAlpha" type="matrix" values="0 0 0 0 0 0 0 0 0 0 0 0 0 0 0 0 0 0 127 0" result="hardAlpha"/>
<feOffset dx="1.03515" dy="1.03515"/>
<feGaussianBlur stdDeviation="3.88183"/>
<feComposite in2="hardAlpha" operator="out"/>
<feColorMatrix type="matrix" values="0 0 0 0 0.440043 0 0 0 0 0.20092 0 0 0 0 0.679167 0 0 0 0.2 0"/>
<feBlend mode="normal" in2="BackgroundImageFix" result="effect1_dropShadow_124_305"/>
<feBlend mode="normal" in="SourceGraphic" in2="effect1_dropShadow_124_305" result="shape"/>
</filter>
<filter id="filter14_d_124_305" x="909.034" y="626.904" width="115.626" height="80.2282" filterUnits="userSpaceOnUse" color-interpolation-filters="sRGB">
<feFlood flood-opacity="0" result="BackgroundImageFix"/>
<feColorMatrix in="SourceAlpha" type="matrix" values="0 0 0 0 0 0 0 0 0 0 0 0 0 0 0 0 0 0 127 0" result="hardAlpha"/>
<feOffset dx="1.03515" dy="1.03515"/>
<feGaussianBlur stdDeviation="3.88183"/>
<feComposite in2="hardAlpha" operator="out"/>
<feColorMatrix type="matrix" values="0 0 0 0 0.440043 0 0 0 0 0.20092 0 0 0 0 0.679167 0 0 0 0.2 0"/>
<feBlend mode="normal" in2="BackgroundImageFix" result="effect1_dropShadow_124_305"/>
<feBlend mode="normal" in="SourceGraphic" in2="effect1_dropShadow_124_305" result="shape"/>
</filter>
<filter id="filter15_d_124_305" x="927.933" y="626.904" width="77.831" height="57.7556" filterUnits="userSpaceOnUse" color-interpolation-filters="sRGB">
<feFlood flood-opacity="0" result="BackgroundImageFix"/>
<feColorMatrix in="SourceAlpha" type="matrix" values="0 0 0 0 0 0 0 0 0 0 0 0 0 0 0 0 0 0 127 0" result="hardAlpha"/>
<feOffset dx="1.03515" dy="1.03515"/>
<feGaussianBlur stdDeviation="3.88183"/>
<feComposite in2="hardAlpha" operator="out"/>
<feColorMatrix type="matrix" values="0 0 0 0 0.440043 0 0 0 0 0.20092 0 0 0 0 0.679167 0 0 0 0.2 0"/>
<feBlend mode="normal" in2="BackgroundImageFix" result="effect1_dropShadow_124_305"/>
<feBlend mode="normal" in="SourceGraphic" in2="effect1_dropShadow_124_305" result="shape"/>
</filter>
<radialGradient id="paint0_radial_124_305" cx="0" cy="0" r="1" gradientUnits="userSpaceOnUse" gradientTransform="translate(957.52 551.24) rotate(51.2098) scale(505.18)">
<stop stop-color="#2954A3"/>
<stop offset="1" stop-color="#0F103F"/>
</radialGradient>
<linearGradient id="paint1_linear_124_305" x1="908.496" y1="1158.05" x2="1054.91" y2="450.7" gradientUnits="userSpaceOnUse">
<stop stop-color="white"/>
<stop offset="0.508554" stop-color="#30FFFF"/>
<stop offset="1" stop-color="white" stop-opacity="0"/>
</linearGradient>
<radialGradient id="paint2_radial_124_305" cx="0" cy="0" r="1" gradientUnits="userSpaceOnUse" gradientTransform="translate(837.018 903.733) rotate(-45.6853) scale(355.024 632.713)">
<stop stop-color="white"/>
<stop offset="0.462474" stop-color="#3A45AA"/>
<stop offset="1" stop-color="#3A45AA" stop-opacity="0"/>
</radialGradient>
<linearGradient id="paint3_linear_124_305" x1="988.558" y1="911.334" x2="1158.65" y2="629.311" gradientUnits="userSpaceOnUse">
<stop stop-color="white"/>
<stop offset="0.442828" stop-color="#30FFFF"/>
<stop offset="1" stop-color="white" stop-opacity="0"/>
</linearGradient>
<radialGradient id="paint4_radial_124_305" cx="0" cy="0" r="1" gradientUnits="userSpaceOnUse" gradientTransform="translate(1258.41 713.175) rotate(141.315) scale(246.834 440.027)">
<stop offset="0.39201" stop-color="#1B29A4" stop-opacity="0"/>
<stop offset="0.841913" stop-color="#2938BB" stop-opacity="0.5"/>
<stop offset="1" stop-color="#172075" stop-opacity="0.5"/>
</radialGradient>
<radialGradient id="paint5_radial_124_305" cx="0" cy="0" r="1" gradientUnits="userSpaceOnUse" gradientTransform="translate(1282.08 674.131) rotate(141.571) scale(343.156 606.252)">
<stop offset="0.39201" stop-color="#6675FF" stop-opacity="0"/>
<stop offset="0.841913" stop-color="#6675FF" stop-opacity="0.5"/>
<stop offset="1" stop-color="#192059" stop-opacity="0"/>
</radialGradient>
<radialGradient id="paint6_radial_124_305" cx="0" cy="0" r="1" gradientUnits="userSpaceOnUse" gradientTransform="translate(1330.07 575.388) rotate(140.348) scale(498.718 889.055)">
<stop offset="0.39201" stop-color="#6675FF" stop-opacity="0"/>
<stop offset="0.841913" stop-color="#6675FF" stop-opacity="0.5"/>
<stop offset="1" stop-color="#DBDEFF" stop-opacity="0"/>
</radialGradient>
<radialGradient id="paint7_radial_124_305" cx="0" cy="0" r="1" gradientUnits="userSpaceOnUse" gradientTransform="translate(1242.49 741.421) rotate(141.315) scale(202.354 360.732)">
<stop offset="0.39201" stop-color="#17217A" stop-opacity="0"/>
<stop offset="0.841913" stop-color="#1A2374" stop-opacity="0.5"/>
<stop offset="1" stop-color="#151E6C" stop-opacity="0.5"/>
</radialGradient>
<linearGradient id="paint8_linear_124_305" x1="1051.68" y1="895.651" x2="1149.27" y2="635.362" gradientUnits="userSpaceOnUse">
<stop stop-color="white"/>
<stop offset="0.508554" stop-color="#30FFFF"/>
<stop offset="1" stop-color="white" stop-opacity="0"/>
</linearGradient>
<radialGradient id="paint9_radial_124_305" cx="0" cy="0" r="1" gradientUnits="userSpaceOnUse" gradientTransform="translate(1147.85 966.515) rotate(-64.0757) scale(330.71)">
<stop offset="0.107416" stop-color="white" stop-opacity="0.5"/>
<stop offset="0.328407" stop-color="#8FB5FF" stop-opacity="0.5"/>
<stop offset="0.629496" stop-color="#220C7A" stop-opacity="0"/>
</radialGradient>
<radialGradient id="paint10_radial_124_305" cx="0" cy="0" r="1" gradientUnits="userSpaceOnUse" gradientTransform="translate(1207.02 800.535) rotate(90) scale(218.22)">
<stop stop-color="#3E5DFF"/>
<stop offset="1" stop-color="#3E5DFF" stop-opacity="0"/>
</radialGradient>
<linearGradient id="paint11_linear_124_305" x1="1323.14" y1="852.673" x2="1090.97" y2="869.43" gradientUnits="userSpaceOnUse">
<stop stop-color="#4E53BE" stop-opacity="0.5"/>
<stop offset="0.885417" stop-color="#33CEFF" stop-opacity="0.7"/>
<stop offset="1" stop-color="white" stop-opacity="0.5"/>
</linearGradient>
<linearGradient id="paint12_linear_124_305" x1="1227.32" y1="972.755" x2="1241.79" y2="811.783" gradientUnits="userSpaceOnUse">
<stop stop-color="white"/>
<stop offset="1" stop-color="white" stop-opacity="0"/>
</linearGradient>
<radialGradient id="paint13_radial_124_305" cx="0" cy="0" r="1" gradientUnits="userSpaceOnUse" gradientTransform="translate(1059.7 854.176) rotate(-19.6638) scale(312.89)">
<stop offset="0.249306" stop-color="white"/>
<stop offset="0.48315" stop-color="#8FF2FF" stop-opacity="0.5"/>
<stop offset="0.627037" stop-color="#220C7A" stop-opacity="0.1"/>
</radialGradient>
<linearGradient id="paint14_linear_124_305" x1="1336.24" y1="820.07" x2="1063.11" y2="828.741" gradientUnits="userSpaceOnUse">
<stop stop-color="#4E53BE" stop-opacity="0.1"/>
<stop offset="1" stop-color="#33CEFF"/>
</linearGradient>
<linearGradient id="paint15_linear_124_305" x1="1315.12" y1="765.308" x2="1064.63" y2="776.576" gradientUnits="userSpaceOnUse">
<stop stop-color="#4E53BE" stop-opacity="0.1"/>
<stop offset="0.997187" stop-color="#33CEFF"/>
</linearGradient>
<linearGradient id="paint16_linear_124_305" x1="1231.94" y1="890.683" x2="1247.05" y2="708.328" gradientUnits="userSpaceOnUse">
<stop stop-color="white"/>
<stop offset="1" stop-color="white" stop-opacity="0"/>
</linearGradient>
<linearGradient id="paint17_linear_124_305" x1="1275.88" y1="695.186" x2="1138.1" y2="704.377" gradientUnits="userSpaceOnUse">
<stop stop-color="#4E53BE" stop-opacity="0.1"/>
<stop offset="1" stop-color="#33CEFF" stop-opacity="0.9"/>
</linearGradient>
<radialGradient id="paint18_radial_124_305" cx="0" cy="0" r="1" gradientUnits="userSpaceOnUse" gradientTransform="translate(1228.28 1006.26) rotate(-83.1976) scale(317.034)">
<stop offset="0.338542" stop-color="#68FFF6" stop-opacity="0.1"/>
<stop offset="0.802083" stop-color="#FFBFE9"/>
<stop offset="1" stop-color="white"/>
</radialGradient>
<linearGradient id="paint19_linear_124_305" x1="1219.56" y1="801.631" x2="1226.95" y2="671.959" gradientUnits="userSpaceOnUse">
<stop stop-color="white"/>
<stop offset="1" stop-color="white" stop-opacity="0"/>
</linearGradient>
<linearGradient id="paint20_linear_124_305" x1="1214.11" y1="857.102" x2="1230.99" y2="703.441" gradientUnits="userSpaceOnUse">
<stop stop-color="white"/>
<stop offset="1" stop-color="white" stop-opacity="0"/>
</linearGradient>
<linearGradient id="paint21_linear_124_305" x1="1217.52" y1="912.019" x2="1220.36" y2="750.318" gradientUnits="userSpaceOnUse">
<stop stop-color="white"/>
<stop offset="1" stop-color="white" stop-opacity="0"/>
</linearGradient>
<linearGradient id="paint22_linear_124_305" x1="1219.06" y1="772.222" x2="1229.09" y2="669.095" gradientUnits="userSpaceOnUse">
<stop stop-color="white"/>
<stop offset="1" stop-color="white" stop-opacity="0"/>
</linearGradient>
<radialGradient id="paint23_radial_124_305" cx="0" cy="0" r="1" gradientUnits="userSpaceOnUse" gradientTransform="translate(976.092 705.339) rotate(90) scale(83.6074)">
<stop stop-color="#FF65C1"/>
<stop offset="1" stop-color="#FF65C1" stop-opacity="0"/>
</radialGradient>
<linearGradient id="paint24_linear_124_305" x1="1018.35" y1="721.425" x2="913.31" y2="729.006" gradientUnits="userSpaceOnUse">
<stop stop-color="#4E53BE" stop-opacity="0.5"/>
<stop offset="0.885417" stop-color="#FB33FF" stop-opacity="0.5"/>
<stop offset="1" stop-color="white" stop-opacity="0.5"/>
</linearGradient>
<linearGradient id="paint25_linear_124_305" x1="974.995" y1="775.752" x2="981.544" y2="702.926" gradientUnits="userSpaceOnUse">
<stop stop-color="white"/>
<stop offset="1" stop-color="white" stop-opacity="0"/>
</linearGradient>
<radialGradient id="paint26_radial_124_305" cx="0" cy="0" r="1" gradientUnits="userSpaceOnUse" gradientTransform="translate(899.163 722.104) rotate(-19.6638) scale(141.555)">
<stop offset="0.249306" stop-color="white"/>
<stop offset="0.48315" stop-color="#FF8FED" stop-opacity="0.5"/>
<stop offset="0.627037" stop-color="#220C7A" stop-opacity="0.5"/>
</radialGradient>
<linearGradient id="paint27_linear_124_305" x1="1030.97" y1="700.628" x2="900.791" y2="710.689" gradientUnits="userSpaceOnUse">
<stop stop-color="#4E53BE" stop-opacity="0.5"/>
<stop offset="0.885417" stop-color="#FB33FF" stop-opacity="0.5"/>
<stop offset="1" stop-color="white" stop-opacity="0.5"/>
</linearGradient>
<linearGradient id="paint28_linear_124_305" x1="977.202" y1="763.552" x2="984.293" y2="679.115" gradientUnits="userSpaceOnUse">
<stop stop-color="white"/>
<stop offset="1" stop-color="white" stop-opacity="0"/>
</linearGradient>
<radialGradient id="paint29_radial_124_305" cx="0" cy="0" r="1" gradientUnits="userSpaceOnUse" gradientTransform="translate(981.68 747.228) rotate(-107.749) scale(99.169)">
<stop offset="0.223958" stop-color="white"/>
<stop offset="0.466382" stop-color="#FFCEF1"/>
<stop offset="0.682292" stop-color="#B6B9FF"/>
<stop offset="0.881791" stop-color="white"/>
</radialGradient>
<radialGradient id="paint30_radial_124_305" cx="0" cy="0" r="1" gradientUnits="userSpaceOnUse" gradientTransform="translate(990.206 747.228) rotate(-100.377) scale(135.421)">
<stop stop-color="white"/>
<stop offset="1" stop-color="white" stop-opacity="0"/>
</radialGradient>
<linearGradient id="paint31_linear_124_305" x1="1030.31" y1="677.153" x2="901.475" y2="687.242" gradientUnits="userSpaceOnUse">
<stop stop-color="#4E53BE" stop-opacity="0.5"/>
<stop offset="0.885417" stop-color="#FB33FF" stop-opacity="0.5"/>
<stop offset="1" stop-color="white" stop-opacity="0.5"/>
</linearGradient>
<linearGradient id="paint32_linear_124_305" x1="977.088" y1="738.622" x2="983.925" y2="656.122" gradientUnits="userSpaceOnUse">
<stop stop-color="white"/>
<stop offset="1" stop-color="white" stop-opacity="0"/>
</linearGradient>
<linearGradient id="paint33_linear_124_305" x1="1015.86" y1="658.981" x2="915.763" y2="665.983" gradientUnits="userSpaceOnUse">
<stop stop-color="#4E53BE" stop-opacity="0.5"/>
<stop offset="0.885417" stop-color="#FB33FF" stop-opacity="0.5"/>
<stop offset="1" stop-color="white" stop-opacity="0.5"/>
</linearGradient>
<linearGradient id="paint34_linear_124_305" x1="974.56" y1="712.38" x2="981.198" y2="640.835" gradientUnits="userSpaceOnUse">
<stop stop-color="white"/>
<stop offset="1" stop-color="white" stop-opacity="0"/>
</linearGradient>
<linearGradient id="paint35_linear_124_305" x1="996.965" y1="650.177" x2="934.634" y2="654.335" gradientUnits="userSpaceOnUse">
<stop stop-color="#4E53BE" stop-opacity="0.5"/>
<stop offset="0.885417" stop-color="#FB33FF" stop-opacity="0.5"/>
<stop offset="1" stop-color="white" stop-opacity="0.5"/>
</linearGradient>
<linearGradient id="paint36_linear_124_305" x1="971.258" y1="685.029" x2="975.798" y2="638.373" gradientUnits="userSpaceOnUse">
<stop stop-color="white"/>
<stop offset="1" stop-color="white" stop-opacity="0"/>
</linearGradient>
<radialGradient id="paint37_radial_124_305" cx="0" cy="0" r="1" gradientUnits="userSpaceOnUse" gradientTransform="translate(939.045 772.928) rotate(-65.1363) scale(210.169)">
<stop offset="0.249306" stop-color="white"/>
<stop offset="0.48315" stop-color="#FF8FED" stop-opacity="0.5"/>
<stop offset="0.627037" stop-color="#220C7A" stop-opacity="0"/>
</radialGradient>
</defs>
</svg>
