<svg width="213" height="26" viewBox="0 0 213 26" fill="none" xmlns="http://www.w3.org/2000/svg">
<path d="M18.298 8.816C18.298 10.1987 17.9807 11.468 17.346 12.624C16.7113 13.7573 15.7367 14.6753 14.422 15.378C13.1073 16.0807 11.4753 16.432 9.526 16.432H5.922V25H0.108V1.132H9.526C11.43 1.132 13.0393 1.46067 14.354 2.118C15.6687 2.77533 16.6547 3.682 17.312 4.838C17.9693 5.994 18.298 7.32 18.298 8.816ZM9.084 11.808C10.1947 11.808 11.022 11.5473 11.566 11.026C12.11 10.5047 12.382 9.768 12.382 8.816C12.382 7.864 12.11 7.12733 11.566 6.606C11.022 6.08467 10.1947 5.824 9.084 5.824H5.922V11.808H9.084ZM32.6128 25.238C30.3688 25.238 28.3061 24.7167 26.4248 23.674C24.5661 22.6313 23.0815 21.1807 21.9708 19.322C20.8828 17.4407 20.3388 15.3327 20.3388 12.998C20.3388 10.6633 20.8828 8.56667 21.9708 6.708C23.0815 4.84933 24.5661 3.39867 26.4248 2.356C28.3061 1.31333 30.3688 0.792 32.6128 0.792C34.8568 0.792 36.9081 1.31333 38.7668 2.356C40.6481 3.39867 42.1215 4.84933 43.1868 6.708C44.2748 8.56667 44.8188 10.6633 44.8188 12.998C44.8188 15.3327 44.2748 17.4407 43.1868 19.322C42.0988 21.1807 40.6255 22.6313 38.7668 23.674C36.9081 24.7167 34.8568 25.238 32.6128 25.238ZM32.6128 19.934C34.5168 19.934 36.0355 19.2993 37.1688 18.03C38.3248 16.7607 38.9028 15.0833 38.9028 12.998C38.9028 10.89 38.3248 9.21267 37.1688 7.966C36.0355 6.69667 34.5168 6.062 32.6128 6.062C30.6861 6.062 29.1448 6.68533 27.9888 7.932C26.8555 9.17867 26.2888 10.8673 26.2888 12.998C26.2888 15.106 26.8555 16.7947 27.9888 18.064C29.1448 19.3107 30.6861 19.934 32.6128 19.934ZM60.2253 25L55.2613 15.99H53.8673V25H48.0533V1.132H57.8113C59.6926 1.132 61.2906 1.46067 62.6053 2.118C63.9426 2.77533 64.94 3.682 65.5973 4.838C66.2546 5.97133 66.5833 7.24067 66.5833 8.646C66.5833 10.2327 66.13 11.6493 65.2233 12.896C64.3393 14.1427 63.0246 15.0267 61.2793 15.548L66.7873 25H60.2253ZM53.8673 11.876H57.4713C58.5366 11.876 59.33 11.6153 59.8513 11.094C60.3953 10.5727 60.6673 9.836 60.6673 8.884C60.6673 7.97733 60.3953 7.26333 59.8513 6.742C59.33 6.22067 58.5366 5.96 57.4713 5.96H53.8673V11.876ZM87.403 1.132V5.79H81.079V25H75.265V5.79H68.941V1.132H87.403ZM101.609 25.238C99.3649 25.238 97.3022 24.7167 95.4209 23.674C93.5622 22.6313 92.0776 21.1807 90.9669 19.322C89.8789 17.4407 89.3349 15.3327 89.3349 12.998C89.3349 10.6633 89.8789 8.56667 90.9669 6.708C92.0776 4.84933 93.5622 3.39867 95.4209 2.356C97.3022 1.31333 99.3649 0.792 101.609 0.792C103.853 0.792 105.904 1.31333 107.763 2.356C109.644 3.39867 111.118 4.84933 112.183 6.708C113.271 8.56667 113.815 10.6633 113.815 12.998C113.815 15.3327 113.271 17.4407 112.183 19.322C111.095 21.1807 109.622 22.6313 107.763 23.674C105.904 24.7167 103.853 25.238 101.609 25.238ZM101.609 19.934C103.513 19.934 105.032 19.2993 106.165 18.03C107.321 16.7607 107.899 15.0833 107.899 12.998C107.899 10.89 107.321 9.21267 106.165 7.966C105.032 6.69667 103.513 6.062 101.609 6.062C99.6822 6.062 98.1409 6.68533 96.9849 7.932C95.8516 9.17867 95.2849 10.8673 95.2849 12.998C95.2849 15.106 95.8516 16.7947 96.9849 18.064C98.1409 19.3107 99.6822 19.934 101.609 19.934ZM132.587 1.132V5.79H122.863V10.822H130.139V15.344H122.863V25H117.049V1.132H132.587ZM146.931 25.238C144.687 25.238 142.624 24.7167 140.743 23.674C138.884 22.6313 137.4 21.1807 136.289 19.322C135.201 17.4407 134.657 15.3327 134.657 12.998C134.657 10.6633 135.201 8.56667 136.289 6.708C137.4 4.84933 138.884 3.39867 140.743 2.356C142.624 1.31333 144.687 0.792 146.931 0.792C149.175 0.792 151.226 1.31333 153.085 2.356C154.966 3.39867 156.44 4.84933 157.505 6.708C158.593 8.56667 159.137 10.6633 159.137 12.998C159.137 15.3327 158.593 17.4407 157.505 19.322C156.417 21.1807 154.944 22.6313 153.085 23.674C151.226 24.7167 149.175 25.238 146.931 25.238ZM146.931 19.934C148.835 19.934 150.354 19.2993 151.487 18.03C152.643 16.7607 153.221 15.0833 153.221 12.998C153.221 10.89 152.643 9.21267 151.487 7.966C150.354 6.69667 148.835 6.062 146.931 6.062C145.004 6.062 143.463 6.68533 142.307 7.932C141.174 9.17867 140.607 10.8673 140.607 12.998C140.607 15.106 141.174 16.7947 142.307 18.064C143.463 19.3107 145.004 19.934 146.931 19.934ZM168.186 20.512H175.802V25H162.372V1.132H168.186V20.512ZM184.389 1.132V25H178.575V1.132H184.389ZM199.89 25.238C197.646 25.238 195.583 24.7167 193.702 23.674C191.843 22.6313 190.359 21.1807 189.248 19.322C188.16 17.4407 187.616 15.3327 187.616 12.998C187.616 10.6633 188.16 8.56667 189.248 6.708C190.359 4.84933 191.843 3.39867 193.702 2.356C195.583 1.31333 197.646 0.792 199.89 0.792C202.134 0.792 204.185 1.31333 206.044 2.356C207.925 3.39867 209.399 4.84933 210.464 6.708C211.552 8.56667 212.096 10.6633 212.096 12.998C212.096 15.3327 211.552 17.4407 210.464 19.322C209.376 21.1807 207.903 22.6313 206.044 23.674C204.185 24.7167 202.134 25.238 199.89 25.238ZM199.89 19.934C201.794 19.934 203.313 19.2993 204.446 18.03C205.602 16.7607 206.18 15.0833 206.18 12.998C206.18 10.89 205.602 9.21267 204.446 7.966C203.313 6.69667 201.794 6.062 199.89 6.062C197.963 6.062 196.422 6.68533 195.266 7.932C194.133 9.17867 193.566 10.8673 193.566 12.998C193.566 15.106 194.133 16.7947 195.266 18.064C196.422 19.3107 197.963 19.934 199.89 19.934Z" fill="url(#paint0_linear_1_360)"/>
<defs>
<linearGradient id="paint0_linear_1_360" x1="7" y1="13" x2="214" y2="13" gradientUnits="userSpaceOnUse">
<stop stop-color="#A35ED0"/>
<stop offset="1" stop-color="white"/>
</linearGradient>
</defs>
</svg>
